<?xml version="1.0" encoding="UTF-8" standalone="no"?>
<!DOCTYPE svg PUBLIC "-//W3C//DTD SVG 1.1//EN" "http://www.w3.org/Graphics/SVG/1.1/DTD/svg11.dtd">
<svg width="100%" height="100%" viewBox="0 0 552 486" version="1.1" xmlns="http://www.w3.org/2000/svg" xmlns:xlink="http://www.w3.org/1999/xlink" xml:space="preserve" xmlns:serif="http://www.serif.com/" style="fill-rule:evenodd;clip-rule:evenodd;stroke-linejoin:round;stroke-miterlimit:2;">
    <g transform="matrix(1.3333,0,0,1.3333,-1421.165465,-262.905194)">
        <g transform="matrix(1.3366,0.01567,-0.01567,1.3366,-294.25,-233.1)">
            <g transform="matrix(0.98551,0.16964,-0.16964,0.98551,85.278,-192.68)">
                <path d="M1238,537C1240.03,534.994 1240.18,530.298 1242.18,527.965C1244.18,525.631 1247.09,524.027 1250,523C1254.47,521.424 1262.94,520.872 1269,518.506C1275.83,515.839 1284.67,510.418 1291,507C1296.38,504.094 1302.21,501.802 1307,498C1311.83,494.167 1319.83,485.234 1320,484C1320.17,482.766 1309.67,490.763 1308,490.596C1306.33,490.43 1309.72,485.603 1310,483C1310.33,479.901 1310.17,475.5 1310,472C1309.84,468.654 1309.83,461.5 1309,462C1308.17,462.5 1306,470.833 1305,475C1304.05,478.943 1304.67,483.333 1303,487C1301.33,490.667 1298.33,494.333 1295,497C1291.67,499.667 1287.03,501.056 1283,503C1278.17,505.333 1269.83,509.667 1266,511C1264.11,511.657 1260.56,512.919 1260,511C1259,507.599 1260.17,495.263 1260,490.596C1259.91,488.044 1259.67,482.266 1259,483C1258.33,483.734 1256.5,491.167 1256,495C1255.53,498.636 1256.17,503 1256,506C1255.87,508.353 1256.59,511.256 1255,513C1253.33,514.833 1248.67,515.908 1246,517C1243.7,517.941 1241.4,518.914 1239,519.554C1236.5,520.22 1232.83,522.092 1231,521C1229.17,519.908 1228.94,515.5 1228,513C1227.13,510.667 1225.82,508 1225.38,506C1225.03,504.372 1223.82,501.575 1225.38,501C1227.65,500.167 1235.4,501.167 1239,501C1241.68,500.876 1244.83,501.336 1247,500C1249.17,498.664 1252.3,493.822 1252,492.987C1251.7,492.151 1247.52,494.987 1245.18,494.987C1242.85,494.987 1240.03,493.718 1238,492.987C1236.26,492.36 1233.83,492.094 1233,490.596C1232.17,489.099 1232.68,486.175 1233,484C1233.33,481.734 1233.28,478.716 1235,477C1237,475 1242.5,474 1245,472C1247.24,470.209 1249.17,466.833 1250,465C1250.55,463.786 1250.5,461 1250,461C1249.5,461 1248.3,463.959 1247,465C1245.33,466.333 1242.33,467.833 1240,469C1237.73,470.135 1235,471.5 1233,472C1231.38,472.404 1229.55,472.619 1228,472C1226.33,471.333 1224.3,469.692 1223,468C1221.33,465.833 1219.83,461.5 1218,459C1216.33,456.719 1214,454.5 1212,453C1210.21,451.658 1206.66,450 1206,450C1205.34,450 1207.25,452.082 1208.04,453C1209.04,454.167 1211.01,455.667 1212,457C1212.89,458.195 1213.33,459.667 1214,461C1214.83,462.667 1216.34,464.863 1217,467C1217.67,469.167 1217.51,471.695 1218,474C1218.5,476.333 1220,478.833 1220,481C1220,483.108 1219.17,485.401 1218,487C1216.83,488.599 1214.17,489.599 1213,490.596C1212.21,491.272 1211.83,492.987 1211,492.987C1210.17,492.987 1208.94,491.493 1208.04,490.596C1206.37,488.932 1202.67,485.433 1201,483C1199.56,480.908 1198.8,478.408 1198,476C1197.17,473.5 1196.15,470.745 1196,468C1195.83,465 1196,461 1197,458C1197.99,455.017 1200.19,452.569 1202,450C1204,447.167 1207.05,444.259 1209,441C1211,437.667 1212.67,433.5 1214,430C1215.24,426.748 1215.93,423.313 1217,420C1218.5,415.333 1221.83,407.667 1223,402C1224.08,396.766 1224.15,391.342 1224,386C1223.83,380 1223.33,370.833 1222,366C1221.04,362.524 1217.9,360.066 1216,357C1213.83,353.5 1210.59,349.35 1209,345C1207.17,340 1206.04,329.167 1205.04,327C1204.29,325.366 1203.33,330.23 1203,332C1202.66,333.833 1202.83,336.007 1203,338C1203.17,340 1203.31,342.092 1204,344C1204.84,346.333 1206.71,349.333 1208.04,352C1209.37,354.661 1210.84,357.333 1212,360C1213.14,362.612 1214.33,365.5 1215,368C1215.61,370.277 1215.83,372.833 1216,375C1216.15,376.994 1216.67,379.833 1216,381C1215.33,382.167 1213.33,382.363 1212,382C1210.17,381.5 1207.23,379.54 1205.04,378C1200.54,374.833 1190.34,367.333 1185,363C1180.79,359.581 1176.17,354.833 1173,352C1170.71,349.951 1167,346.333 1166,346C1165,345.667 1166.29,348.821 1167,350C1168,351.667 1170.39,353.953 1172,356C1173.83,358.333 1175.64,361.643 1178,364C1180.67,366.667 1185,369.5 1188,372C1190.72,374.268 1193.18,376.848 1196,379C1198.83,381.167 1202.5,383.167 1205,385C1207.1,386.54 1209.83,388 1211,390C1212.17,392 1212.27,394.658 1212,397C1211.51,401.333 1209.37,411.5 1208.04,416C1207.19,418.864 1206.34,422.667 1204,424C1201.66,425.333 1197.27,424.636 1194,424C1188,422.833 1176,421.072 1168,417C1158.83,412.333 1145.33,402.167 1139,396C1134.62,391.731 1132.17,384.333 1130,380C1128.39,376.789 1127.13,373.406 1126,370C1124.33,365 1122.17,354.667 1120,350C1118.51,346.786 1113.83,342.5 1113,342C1112.17,341.5 1114.26,345.366 1115,347C1115.83,348.833 1117.56,350.807 1118,353C1118.5,355.5 1118,359.5 1118,362C1118,364 1118.83,367.333 1118,368C1117.17,368.667 1114.53,366.941 1113,366C1110.83,364.667 1107.67,361.833 1105,360C1102.41,358.218 1099.17,356.333 1097,355C1095.35,353.981 1092.33,351.833 1092,352C1091.67,352.167 1094.02,354.652 1095,356C1096.33,357.833 1098.05,360.899 1100,363C1102.17,365.333 1105.56,367.428 1108,370C1111,373.167 1115.33,378 1118,382C1120.48,385.721 1122.33,390.833 1124,394C1125.25,396.378 1126.25,398.96 1128,401C1131,404.5 1137.33,411.333 1142,415C1146.23,418.321 1151.35,420.5 1156,423C1160.57,425.455 1165.38,428.167 1169.88,430C1174.12,431.724 1178.65,432.667 1183,434C1187.34,435.328 1193.83,437 1196,438C1196.61,438.279 1196.29,439.4 1196,440C1195.12,441.833 1192.36,446.833 1190.69,449C1189.44,450.629 1187.62,452.167 1186,453C1184.49,453.779 1182.69,453.859 1181,454C1177,454.333 1167.4,455 1162,455C1157.53,455 1152.62,455.999 1148.63,454C1144.63,452 1141.27,446.833 1138,443C1134.75,439.197 1131.41,435.378 1129,431C1126.33,426.167 1125.67,418.667 1122,414C1118.33,409.333 1111,406.333 1107,403C1103.74,400.284 1101.23,396.751 1098,394C1093.5,390.167 1083.67,382.333 1080,380C1078.88,379.284 1075.33,379 1076,380C1076.67,381 1081.69,383.598 1084,386C1086.41,388.5 1089.36,392.667 1090.44,395C1091.13,396.514 1091.91,399.22 1090.44,400C1088.86,400.833 1083.91,400.667 1081,400C1078.09,399.333 1075,397.5 1073,396C1071.29,394.719 1070.33,392.333 1069,391C1067.82,389.821 1065.33,387.667 1065,388C1064.67,388.333 1066.06,391.471 1067,393C1068.33,395.167 1070.67,399 1073,401C1075.26,402.94 1078.18,404.03 1081,405C1083.91,406 1087.33,406.182 1090.44,407C1093.6,407.833 1097.02,408.484 1100,410C1103.93,412 1111.17,416 1114,419C1116.17,421.299 1116.67,425.333 1117,428C1117.29,430.339 1118.32,434.566 1116,435C1113.33,435.5 1104.67,433 1101,431C1097.89,429.303 1096.25,425.735 1094,423C1091.67,420.167 1088.67,416.167 1087,414C1085.98,412.679 1084.5,410 1084,410C1083.5,410 1083.78,412.685 1084,414C1084.33,416 1085.03,419.429 1086,422C1087.07,424.833 1088.44,428.5 1090.44,431C1092.44,433.5 1095.41,435.167 1098,437C1100.57,438.815 1103.33,440.833 1106,442C1108.52,443.102 1111.35,443.264 1114,444C1117,444.833 1121.04,445.168 1124,447C1127.5,449.167 1131.67,454.667 1135,457C1137.69,458.883 1140.87,460.011 1144,461C1147.17,462 1150.62,462.692 1154,463C1157.67,463.333 1162.67,462.667 1166,463C1168.74,463.274 1171.83,464.333 1174,465C1175.72,465.528 1177.84,465.63 1179,467C1180.83,469.167 1183.05,474.833 1185,478C1186.71,480.787 1189.03,483.179 1190.69,486C1192.36,488.833 1193.42,492.072 1195,495C1196.88,498.5 1199.36,503.193 1202,507C1204.83,511.092 1208.92,515.179 1212,519.554C1215.17,524.054 1218,530.592 1221,534C1223.38,536.706 1227.17,539.5 1230,540C1232.81,540.495 1235.97,539.002 1238,537Z" style="fill:rgb(181,150,111);"/>
            </g>
            <g transform="matrix(0.98293,-0.18396,0.18396,0.98293,-82.458,244.02)">
                <path d="M1238,537C1240.03,534.994 1240.18,530.298 1242.18,527.965C1244.18,525.631 1247.09,524.027 1250,523C1254.47,521.424 1262.94,520.872 1269,518.506C1275.83,515.839 1284.67,510.418 1291,507C1296.38,504.094 1302.21,501.802 1307,498C1311.83,494.167 1319.83,485.234 1320,484C1320.17,482.766 1309.67,490.763 1308,490.596C1306.33,490.43 1309.72,485.603 1310,483C1310.33,479.901 1310.17,475.5 1310,472C1309.84,468.654 1309.83,461.5 1309,462C1308.17,462.5 1306,470.833 1305,475C1304.05,478.943 1304.67,483.333 1303,487C1301.33,490.667 1298.33,494.333 1295,497C1291.67,499.667 1287.03,501.056 1283,503C1278.17,505.333 1269.83,509.667 1266,511C1264.11,511.657 1260.56,512.919 1260,511C1259,507.599 1260.17,495.263 1260,490.596C1259.91,488.044 1259.67,482.266 1259,483C1258.33,483.734 1256.5,491.167 1256,495C1255.53,498.636 1256.17,503 1256,506C1255.87,508.353 1256.59,511.256 1255,513C1253.33,514.833 1248.67,515.908 1246,517C1243.7,517.941 1241.4,518.914 1239,519.554C1236.5,520.22 1232.83,522.092 1231,521C1229.17,519.908 1228.94,515.5 1228,513C1227.13,510.667 1225.82,508 1225.38,506C1225.03,504.372 1223.82,501.575 1225.38,501C1227.65,500.167 1235.4,501.167 1239,501C1241.68,500.876 1244.83,501.336 1247,500C1249.17,498.664 1252.3,493.822 1252,492.987C1251.7,492.151 1247.52,494.987 1245.18,494.987C1242.85,494.987 1240.03,493.718 1238,492.987C1236.26,492.36 1233.83,492.094 1233,490.596C1232.17,489.099 1232.68,486.175 1233,484C1233.33,481.734 1233.28,478.716 1235,477C1237,475 1242.5,474 1245,472C1247.24,470.209 1249.17,466.833 1250,465C1250.55,463.786 1250.5,461 1250,461C1249.5,461 1248.3,463.959 1247,465C1245.33,466.333 1242.33,467.833 1240,469C1237.73,470.135 1235,471.5 1233,472C1231.38,472.404 1229.55,472.619 1228,472C1226.33,471.333 1224.3,469.692 1223,468C1221.33,465.833 1219.83,461.5 1218,459C1216.33,456.719 1214,454.5 1212,453C1210.21,451.658 1206.66,450 1206,450C1205.34,450 1207.25,452.082 1208.04,453C1209.04,454.167 1211.01,455.667 1212,457C1212.89,458.195 1213.33,459.667 1214,461C1214.83,462.667 1216.34,464.863 1217,467C1217.67,469.167 1217.51,471.695 1218,474C1218.5,476.333 1220,478.833 1220,481C1220,483.108 1219.17,485.401 1218,487C1216.83,488.599 1214.17,489.599 1213,490.596C1212.21,491.272 1211.83,492.987 1211,492.987C1210.17,492.987 1208.94,491.493 1208.04,490.596C1206.37,488.932 1202.67,485.433 1201,483C1199.56,480.908 1198.8,478.408 1198,476C1197.17,473.5 1196.15,470.745 1196,468C1195.83,465 1196,461 1197,458C1197.99,455.017 1200.19,452.569 1202,450C1204,447.167 1207.05,444.259 1209,441C1211,437.667 1212.67,433.5 1214,430C1215.24,426.748 1215.93,423.313 1217,420C1218.5,415.333 1221.83,407.667 1223,402C1224.08,396.766 1224.15,391.342 1224,386C1223.83,380 1223.33,370.833 1222,366C1221.04,362.524 1217.9,360.066 1216,357C1213.83,353.5 1210.59,349.35 1209,345C1207.17,340 1206.04,329.167 1205.04,327C1204.29,325.366 1203.33,330.23 1203,332C1202.66,333.833 1202.83,336.007 1203,338C1203.17,340 1203.31,342.092 1204,344C1204.84,346.333 1206.71,349.333 1208.04,352C1209.37,354.661 1210.84,357.333 1212,360C1213.14,362.612 1214.33,365.5 1215,368C1215.61,370.277 1215.83,372.833 1216,375C1216.15,376.994 1216.67,379.833 1216,381C1215.33,382.167 1213.33,382.363 1212,382C1210.17,381.5 1207.23,379.54 1205.04,378C1200.54,374.833 1190.34,367.333 1185,363C1180.79,359.581 1176.17,354.833 1173,352C1170.71,349.951 1167,346.333 1166,346C1165,345.667 1166.29,348.821 1167,350C1168,351.667 1170.39,353.953 1172,356C1173.83,358.333 1175.64,361.643 1178,364C1180.67,366.667 1185,369.5 1188,372C1190.72,374.268 1193.18,376.848 1196,379C1198.83,381.167 1202.5,383.167 1205,385C1207.1,386.54 1209.83,388 1211,390C1212.17,392 1212.27,394.658 1212,397C1211.51,401.333 1209.37,411.5 1208.04,416C1207.19,418.864 1206.34,422.667 1204,424C1201.66,425.333 1197.27,424.636 1194,424C1188,422.833 1176,421.072 1168,417C1158.83,412.333 1145.33,402.167 1139,396C1134.62,391.731 1132.17,384.333 1130,380C1128.39,376.789 1127.13,373.406 1126,370C1124.33,365 1122.17,354.667 1120,350C1118.51,346.786 1113.83,342.5 1113,342C1112.17,341.5 1114.26,345.366 1115,347C1115.83,348.833 1117.56,350.807 1118,353C1118.5,355.5 1118,359.5 1118,362C1118,364 1118.83,367.333 1118,368C1117.17,368.667 1114.53,366.941 1113,366C1110.83,364.667 1107.67,361.833 1105,360C1102.41,358.218 1099.17,356.333 1097,355C1095.35,353.981 1092.33,351.833 1092,352C1091.67,352.167 1094.02,354.652 1095,356C1096.33,357.833 1098.05,360.899 1100,363C1102.17,365.333 1105.56,367.428 1108,370C1111,373.167 1115.33,378 1118,382C1120.48,385.721 1122.33,390.833 1124,394C1125.25,396.378 1126.25,398.96 1128,401C1131,404.5 1137.33,411.333 1142,415C1146.23,418.321 1151.35,420.5 1156,423C1160.57,425.455 1165.38,428.167 1169.88,430C1174.12,431.724 1178.65,432.667 1183,434C1187.34,435.328 1193.83,437 1196,438C1196.61,438.279 1196.29,439.4 1196,440C1195.12,441.833 1192.36,446.833 1190.69,449C1189.44,450.629 1187.62,452.167 1186,453C1184.49,453.779 1182.69,453.859 1181,454C1177,454.333 1167.4,455 1162,455C1157.53,455 1152.62,455.999 1148.63,454C1144.63,452 1141.27,446.833 1138,443C1134.75,439.197 1131.41,435.378 1129,431C1126.33,426.167 1125.67,418.667 1122,414C1118.33,409.333 1111,406.333 1107,403C1103.74,400.284 1101.23,396.751 1098,394C1093.5,390.167 1083.67,382.333 1080,380C1078.88,379.284 1075.33,379 1076,380C1076.67,381 1081.69,383.598 1084,386C1086.41,388.5 1089.36,392.667 1090.44,395C1091.13,396.514 1091.91,399.22 1090.44,400C1088.86,400.833 1083.91,400.667 1081,400C1078.09,399.333 1075,397.5 1073,396C1071.29,394.719 1070.33,392.333 1069,391C1067.82,389.821 1065.33,387.667 1065,388C1064.67,388.333 1066.06,391.471 1067,393C1068.33,395.167 1070.67,399 1073,401C1075.26,402.94 1078.18,404.03 1081,405C1083.91,406 1087.33,406.182 1090.44,407C1093.6,407.833 1097.02,408.484 1100,410C1103.93,412 1111.17,416 1114,419C1116.17,421.299 1116.67,425.333 1117,428C1117.29,430.339 1118.32,434.566 1116,435C1113.33,435.5 1104.67,433 1101,431C1097.89,429.303 1096.25,425.735 1094,423C1091.67,420.167 1088.67,416.167 1087,414C1085.98,412.679 1084.5,410 1084,410C1083.5,410 1083.78,412.685 1084,414C1084.33,416 1085.03,419.429 1086,422C1087.07,424.833 1088.44,428.5 1090.44,431C1092.44,433.5 1095.41,435.167 1098,437C1100.57,438.815 1103.33,440.833 1106,442C1108.52,443.102 1111.35,443.264 1114,444C1117,444.833 1121.04,445.168 1124,447C1127.5,449.167 1131.67,454.667 1135,457C1137.69,458.883 1140.87,460.011 1144,461C1147.17,462 1150.62,462.692 1154,463C1157.67,463.333 1162.67,462.667 1166,463C1168.74,463.274 1171.83,464.333 1174,465C1175.72,465.528 1177.84,465.63 1179,467C1180.83,469.167 1183.05,474.833 1185,478C1186.71,480.787 1189.03,483.179 1190.69,486C1192.36,488.833 1193.42,492.072 1195,495C1196.88,498.5 1199.36,503.193 1202,507C1204.83,511.092 1208.92,515.179 1212,519.554C1215.17,524.054 1218,530.592 1221,534C1223.38,536.706 1227.17,539.5 1230,540C1232.81,540.495 1235.97,539.002 1238,537Z" style="fill:rgb(207,169,121);"/>
            </g>
        </g>
    </g>
</svg>
